HIERARCHY
ROOT Hips
{
	OFFSET 0.000000 0.000000 0.000000
	CHANNELS 6 Xposition Yposition Zposition Zrotation Yrotation Xrotation 
	JOINT LHipJoint
	{
		OFFSET 0.000000 0.000000 0.000000
		CHANNELS 3 Zrotation Yrotation Xrotation
		JOINT LeftUpLeg
		{
			OFFSET 1.363060 -1.794630 0.839290
			CHANNELS 3 Zrotation Yrotation Xrotation
			JOINT LeftLeg
			{
				OFFSET 2.448110 -6.726130 0.000000
				CHANNELS 3 Zrotation Yrotation Xrotation
				JOINT LeftFoot
				{
					OFFSET 2.562200 -7.039590 0.000000
					CHANNELS 3 Zrotation Yrotation Xrotation
					JOINT LeftToeBase
					{
						OFFSET 0.157640 -0.433110 2.322550
						CHANNELS 3 Zrotation Yrotation Xrotation
						End Site
						{
							OFFSET 0.000000 0.000000 0.000000
						}
					}
				}
			}
		}
	}
	JOINT RHipJoint
	{
		OFFSET 0.000000 0.000000 0.000000
		CHANNELS 3 Zrotation Yrotation Xrotation
		JOINT RightUpLeg
		{
			OFFSET -1.305520 -1.794630 0.839290
			CHANNELS 3 Zrotation Yrotation Xrotation
			JOINT RightLeg
			{
				OFFSET -2.542530 -6.985550 0.000000
				CHANNELS 3 Zrotation Yrotation Xrotation
				JOINT RightFoot
				{
					OFFSET -2.568260 -7.056230 0.000000
					CHANNELS 3 Zrotation Yrotation Xrotation
					JOINT RightToeBase
					{
						OFFSET -0.164730 -0.452590 2.363150
						CHANNELS 3 Zrotation Yrotation Xrotation
						End Site
						{
							OFFSET 0.000000 0.000000 0.000000
						}
					}
				}
			}
		}
	}
}
MOTION
Frames: 16
Frame Time: 0.008333
-21.378600 16.196270 -0.829229 12.604955 85.922506 37.821209 -8.729182 -1.967397 2.905215 -3.801882 -7.993538 -61.151286 -0.724465 1.578026 35.847208 1.862393 9.147322 0.197420 1.912401 -0.000000 -31.325200 10.421823 -2.866270 -2.741677 3.963772 -7.079807 0.576939 1.702540 -1.059039 16.787288 -0.809460 -3.926969 0.181715 -0.788100 -0.000000 -84.759200
-21.180864 16.209661 -0.853008 14.797727 86.032432 39.815067 -8.678437 -1.942214 2.793684 -4.332614 -7.993606 -60.645178 -0.713460 1.620357 36.935998 1.872146 9.164686 -0.504679 1.779400 0.000000 -31.229200 10.668931 -2.975182 -2.851309 3.348369 -7.946960 -0.270626 1.517997 -1.380177 19.171587 -0.787711 -3.885415 2.596361 -0.921100 0.000000 -86.915200
-20.984396 16.226037 -0.876866 17.071524 86.147882 41.860191 -8.619123 -1.901140 2.666995 -4.923181 -7.928627 -60.011098 -0.728594 1.649039 37.868968 1.872436 9.112671 -1.356179 1.609300 -0.000000 -31.315500 10.931242 -3.053659 -2.971678 2.735885 -8.885703 -1.208898 1.307910 -1.685178 21.680683 -0.820691 -4.029589 5.127753 -1.075099 0.000000 -88.268800
-20.789991 16.245126 -0.901021 19.352299 86.265699 43.886327 -8.554882 -1.843449 2.528172 -5.553345 -7.801463 -59.255465 -0.765661 1.665463 38.647150 1.864946 9.000618 -2.313252 1.413000 0.000000 -31.551100 11.199198 -3.093367 -3.098959 2.145554 -9.861570 -2.223622 1.080434 -1.964793 24.295837 -0.913921 -4.407583 7.691827 -1.280500 0.000000 -88.606499
-20.597859 16.266526 -0.926028 21.442177 86.385208 45.704609 -8.498120 -1.771584 2.384028 -6.183106 -7.612418 -58.401770 -0.818509 1.673080 39.281325 1.850641 8.832798 -3.330538 1.200900 -0.000001 -31.891900 11.450418 -3.090823 -3.228247 1.620400 -10.825749 -3.297386 0.847896 -2.211181 26.986732 -1.067314 -5.067953 10.180780 -1.577499 0.000000 -87.765099
-20.408308 16.290251 -0.950670 23.686048 86.506108 47.659909 -8.428963 -1.683100 2.232144 -6.836957 -7.390636 -57.436610 -0.885584 1.666873 39.758315 1.832510 8.636946 -4.356202 0.988101 -0.000000 -32.273600 11.708253 -3.041376 -3.359455 1.119246 -11.781037 -4.435376 0.622903 -2.428033 29.757584 -1.269651 -5.986295 12.474123 -1.982900 -0.000000 -85.708400
-20.221383 16.316087 -0.976075 25.719268 86.630579 49.404023 -8.371467 -1.584093 2.085058 -7.451451 -7.132401 -56.406706 -0.959078 1.653160 40.099868 1.810349 8.409702 -5.353997 0.781600 -0.000000 -32.650900 11.934972 -2.953768 -3.486772 0.714895 -12.669311 -5.618706 0.418473 -2.614043 32.554454 -1.509576 -7.180881 14.445824 -2.521600 -0.000001 -82.536700
-20.036836 16.344206 -1.001685 27.674124 86.758666 51.075183 -8.319220 -1.475228 1.945133 -8.026636 -6.857759 -55.320045 -1.036387 1.630665 40.304338 1.785782 8.167882 -6.289525 0.590100 -0.000000 -32.975500 12.136681 -2.834827 -3.609210 0.399605 -13.481523 -6.848588 0.241676 -2.778074 35.353564 -1.769243 -8.593136 15.989940 -3.174300 0.000000 -78.528999
-19.854874 16.374787 -1.027259 29.559898 86.889251 52.690963 -8.272960 -1.358625 1.816109 -8.551524 -6.579045 -54.192463 -1.114920 1.599960 40.373772 1.759792 7.921854 -7.140244 0.418500 0.000000 -33.217700 12.310798 -2.694808 -3.724453 0.181586 -14.199395 -8.122867 0.094018 -2.928681 38.117858 -2.031852 -10.148175 17.035889 -3.896400 -0.000000 -74.073600
-19.674953 16.408107 -1.052549 31.374195 87.020473 54.255815 -8.233921 -1.236625 1.700579 -9.018352 -6.304841 -53.037699 -1.193104 1.561687 40.309782 1.733079 7.679298 -7.893956 0.269200 0.000000 -33.365701 12.455584 -2.544340 -3.829596 0.067637 -14.806727 -9.439640 -0.027792 -3.073246 40.809066 -2.282807 -11.750914 17.557424 -4.620899 0.000000 -69.574799
-19.497159 16.444545 -1.077249 33.119441 87.148441 55.776772 -8.201974 -1.110727 1.599676 -9.426442 -6.040927 -51.861539 -1.270645 1.515718 40.108819 1.706335 7.446933 -8.546584 0.142300 0.000000 -33.425701 12.572307 -2.392157 -3.920855 0.056481 -15.290869 -10.797017 -0.129582 -3.216654 43.392323 -2.510228 -13.294744 17.569899 -5.270300 -0.000000 -65.356100
-19.320887 16.484279 -1.101217 34.758830 87.270676 57.220739 -8.178981 -0.984118 1.512490 -9.773932 -5.788302 -50.669527 -1.347573 1.462301 39.770642 1.679863 7.227536 -9.102537 0.036100 0.000000 -33.417099 12.660321 -2.245101 -3.996104 0.148025 -15.643593 -12.192744 -0.216898 -3.361148 45.838313 -2.704748 -14.677428 17.115903 -5.772600 -0.000000 -61.613500
-19.146012 16.527541 -1.124286 36.259666 87.383627 58.554456 -8.165770 -0.858644 1.438016 -10.064654 -5.545501 -49.458896 -1.424530 1.400780 39.290536 1.654006 7.023668 -9.569025 -0.051700 -0.000000 -33.369400 12.721007 -2.107852 -4.052328 0.333587 -15.863036 -13.622161 -0.293870 -3.506362 48.121290 -2.859041 -15.810036 16.259237 -6.073700 -0.000000 -58.421100
-18.972218 16.574353 -1.146377 37.575300 87.483755 59.729007 -8.163346 -0.736375 1.374125 -10.303276 -5.309055 -48.223091 -1.502137 1.330365 38.664678 1.628965 6.836683 -9.955166 -0.123499 0.000000 -33.314600 12.755541 -1.983011 -4.087909 0.601079 -15.952925 -15.077549 -0.362310 -3.650338 50.218563 -2.967552 -16.625976 15.074723 -6.146300 -0.000000 -55.770200
-18.798967 16.624602 -1.167535 38.647651 87.568670 60.682547 -8.172978 -0.619540 1.318077 -10.494498 -5.074832 -46.952761 -1.580630 1.250196 37.890376 1.604844 6.667681 -10.269250 -0.181799 -0.000000 -33.282800 12.764680 -1.871504 -4.102747 0.935705 -15.922361 -16.548804 -0.421766 -3.790336 52.110304 -3.026580 -17.085529 13.643369 -5.992200 -0.000001 -53.602200
-18.626271 16.678029 -1.187944 39.407009 87.637220 61.339970 -8.196535 -0.510273 1.267592 -10.641941 -4.838449 -45.637876 -1.659595 1.159505 36.966884 1.581640 6.517866 -10.516783 -0.228400 -0.000000 -33.297699 12.748417 -1.773566 -4.097360 1.322235 -15.784137 -18.022870 -0.470148 -3.923152 53.778335 -3.034831 -17.178672 12.050479 -5.642100 -0.000000 -51.854100
